<svg xmlns="http://www.w3.org/2000/svg" viewBox="0 0 526.36 164.54"><defs><style>.cls-1{fill:#53b687;}.cls-2{fill:#445567;}.cls-3{fill:#efdb51;}.cls-4{fill:#1c75b8;}.cls-5{fill:#e4532a;}.cls-6{fill:#bbb;}.cls-7{fill:#bfbfbf;}.cls-8{fill:#bdbcbc;}.cls-9{fill:#787777;}.cls-10{fill:#747474;}.cls-11{fill:#7a7979;}.cls-12{fill:#717171;}.cls-13{fill:#7d7c7c;}.cls-14{fill:#383832;}.cls-15{fill:#363632;}.cls-16{fill:#3aaadd;}.cls-17{fill:#e7e9ea;}.cls-18{fill:#e7e9eb;}.cls-19{fill:#45acdd;}.cls-20{fill:#e4e7ea;}.cls-21{fill:#ec662b;}.cls-22{fill:#ece6e4;}.cls-23{fill:#ece8e7;}.cls-24{fill:#ec6a33;}.cls-25{fill:#e7947c;}.cls-26{fill:#feffff;}.cls-27{fill:#fffdfd;}.cls-28{fill:#fffffe;}.cls-29{fill:#e35128;}</style></defs><g id="Слой_2" data-name="Слой 2"><g id="Слой_1-2" data-name="Слой 1"><path class="cls-1" d="M151.78.15h38.31l-95,164.39L0,.13H38.37c.48,1,.87,2.09,1.43,3.07Q64.15,45.32,88.52,87.43c2.12,3.67,4.26,7.34,6.51,11.21.43-.7.67-1.06.88-1.44q23.39-40.4,46.74-80.82C145.75,11,148.74,5.56,151.78.15Z"/><path class="cls-2" d="M151.78.15c-3,5.41-6,10.86-9.13,16.23Q119.31,56.8,95.91,97.2c-.21.38-.45.74-.88,1.44-2.25-3.87-4.39-7.54-6.51-11.21Q64.15,45.31,39.8,3.2c-.56-1-.95-2-1.43-3.07C49.44.1,60.51,0,71.58.13A3.94,3.94,0,0,1,74.23,2c6.48,11,12.85,22.12,19.25,33.18.48.83,1,1.63,1.61,2.62,7-12,13.83-23.83,20.6-35.68A3.63,3.63,0,0,1,119.37,0C130.17.12,141,.11,151.78.15Z"/><path class="cls-3" d="M498.68,56.3v63.79H434.77V56.3Zm-6.8,33.8c-2.35-4-5.79-5.51-10.6-4.62a7.8,7.8,0,0,0-6.61,6.58c-.56,4,1.35,7.29,5.63,9.45,1.64.83,3.35,1.53,5,2.33s3.06,1.89,2.2,3.58c-.57,1.11-2.51,2.38-3.6,2.2-2.32-.38-4.49-1.66-6.72-2.58l.2-.66L473,109c3.36,6.2,12.44,8.36,17.67,4.12a9.61,9.61,0,0,0,2.93-5.28c.79-4-1.11-7-4.63-8.89-2.24-1.2-4.69-2-6.79-3.44A3.72,3.72,0,0,1,481,92.23c.19-.74,1.9-1.64,2.82-1.53,1.33.17,2.55,1.19,4.11,2ZM451.8,109.54c1.39,4.46,6.17,6.13,10.93,5.44,4-.58,6.59-3.4,6.69-7.84.16-6.93.06-13.87,0-20.8,0-.22-.21-.44-.3-.61h-5.63c0,6.91.08,13.66-.09,20.4,0,1.17-1,3.11-1.82,3.28-1.25.26-2.79-.65-4.14-1.22-.48-.2-.76-.86-1.2-1.38Z"/><path class="cls-4" d="M343.73,56.28H407.6c-.41,5-.8,9.83-1.23,14.67q-1.74,19.53-3.52,39c-.3,3.32-.55,6.65-1,9.94a2.78,2.78,0,0,1-1.6,1.88c-7.84,2.26-15.7,4.41-23.57,6.54a4.52,4.52,0,0,1-2.28,0c-7.7-2.1-15.36-4.31-23.08-6.33a2.38,2.38,0,0,1-2.07-2.51q-1.64-18.87-3.32-37.74c-.61-6.9-1.25-13.79-1.86-20.69C343.92,59.55,343.85,58.07,343.73,56.28Zm31.73,28.78h-9.38L367,93l8.5.77c0,2.34.08,4.51,0,6.67-.08,1.76-.39,3.51-.6,5.27a31.88,31.88,0,0,0-3.31-.8c-3.52-.45-5.86-1.79-5.25-5.94a2.18,2.18,0,0,0-1.33-1.7c-2.22-.19-4.46-.08-6.81-.08.33,3.77.75,7.16.87,10.55.06,1.69.8,2.22,2.25,2.59,4.57,1.19,9.1,2.51,13.65,3.77.29,2.89.59,5.78.92,9,6.48-1.79,12.76-3.62,19.1-5.23,1.63-.42,2-1.14,2.13-2.68.48-7.05,1-14.11,1.64-21.15.95-10.6,2-21.18,3-32.19H381.4c-5.81,0-5.81,0-5.91,5.67,0,.52-.07,1-.1,1.57h-19.7c.27,3,.5,5.41.74,8.07h19C375.46,79.75,375.46,82.4,375.46,85.06Z"/><path class="cls-5" d="M249.93,56.32h63.56c-.29,3.62-.55,7.16-.87,10.7q-2.33,26.21-4.76,52.41a3,3,0,0,1-1.75,2q-11.48,3.4-23,6.53a6.06,6.06,0,0,1-3.07-.15c-7.44-2-14.85-4.2-22.31-6.18a2.49,2.49,0,0,1-2.18-2.65c-1.12-13.11-2.32-26.21-3.5-39.31C251.33,72,250.65,64.32,249.93,56.32ZM281.57,106c-1.53-.34-3.06-.65-4.58-1-4-1.06-4-1.08-4.54-5.33a17.31,17.31,0,0,0-.42-1.87h-7.68c.29,3.7.48,7.19.92,10.66a2.91,2.91,0,0,0,1.71,2c4.84,1.49,9.74,2.8,14.61,4.17,0,1.93,0,3.86,0,5.79,0,1.62.78,2.29,2.35,1.85,5.64-1.56,11.31-3.06,16.89-4.82a3.94,3.94,0,0,0,2.25-2.7c.72-6.67,1.14-13.37,1.73-20.06.43-4.94,1-9.87,1.44-14.81.46-5.48.79-11,1.19-16.45.1-1.35-.23-2.12-1.85-2.11-7.29.06-14.59,0-21.89,0-1.62,0-2.16.78-2.12,2.28.05,1.85,0,3.69,0,5.53l-4.45.09-14.62.29-.52.21-.06,1.67,1.94,22.27h17.21a16.59,16.59,0,0,1,.47,2.76C281.61,99.61,281.57,102.82,281.57,106Z"/><path class="cls-6" d="M252.38,154.38c-3.47-.85-6.79-1.25-9.78-2.48-7.49-3.08-13-8.26-15.07-16.39-1.12-4.41-.34-8.86.4-13.25.91-5.43,2-10.83,2.87-16.26A10.93,10.93,0,0,0,225,94.6c-1.71-.8-1.45-2-1.45-3.22s-.24-2.22,1.36-3c4-1.82,6.58-7.17,5.87-11.44-1-6.2-1.93-12.44-3.23-18.59-3.27-15.52,7.38-26,19.58-28.66,1.61-.35,3.27-.42,4.87-.62,1.2,4,.92,4.5-2.9,5.51A15.86,15.86,0,0,0,237.9,49.83c.17,5.22,1.31,10.4,1.66,15.62.33,5,.83,10.2.05,15.11-.6,3.78-3.06,7.27-4.77,11,1.32,2.7,3.34,5.9,4.49,9.39,2.07,6.34.86,12.79-.12,19.22-.72,4.74-1.5,9.59-1.23,14.34.43,7.67,5.5,12.41,14.4,14.53Z"/><path class="cls-6" d="M497.5,29.23A25.85,25.85,0,0,1,515,36.13c7.27,6.37,8.64,14.36,6.85,23.43-1.22,6.17-2.27,12.39-2.9,18.63-.47,4.53,1.63,8.12,5.84,10.3,1.85,1,2.08,4.69.42,5.7-5.47,3.32-7.33,7.42-6.2,14,1.08,6.28,2.24,12.56,3.38,18.83,1.68,9.2-3.4,18.69-12.63,23.68a26.66,26.66,0,0,1-12.39,3.2v-4.79a33.25,33.25,0,0,0,4.7-1.26c5.92-2.5,9.16-7.24,9.35-13.45.16-5.2-.85-10.43-1.22-15.65-.34-4.88-1-9.8-.64-14.65a17.46,17.46,0,0,1,6.16-12.46A58.87,58.87,0,0,1,512,86.46c-3.4-5.88-2.92-12.32-2.35-18.71S511.26,55.26,511.5,49c.25-6.46-4.64-12.43-10.85-14.25C496.94,33.66,496.94,33.66,497.5,29.23Z"/><path class="cls-7" d="M416.7,91.42V80.89h4V91.38c3,0,5.73,0,8.41,0,2.83,0,3,.29,2.34,3.56H421v10.82h-4.25V95.12H406.27v-3.7Z"/><path class="cls-8" d="M326.29,80.88h4.23v5.57c0,4.94,0,4.94,5.07,4.94H341V95H330.52c0,2.77,0,5.21,0,7.64,0,3.55-.17,3.68-4.07,3V95.09H316.06V91.51h10.23Z"/><path class="cls-9" d="M163.31,83.07c-.88,5.78-1.69,11.58-2.7,17.35a2.67,2.67,0,0,1-2,1.66c-1,0-2.84-.47-2.94-1-1.11-6-2-12-2.89-18.24h3c.69,4.5,1.38,9,2.06,13.53h.57c.57-3.8,1.15-7.6,1.71-11.4C160.58,82.52,160.57,82.51,163.31,83.07Z"/><path class="cls-10" d="M164,82.85h3.1V95.21a7.65,7.65,0,0,0,.07,2.35,8.09,8.09,0,0,0,1.32,2c.58-.63,1.61-1.23,1.67-1.9.2-2.52.09-5.08.1-7.62V82.88l2.73-.15c0,5.45.11,10.69-.05,15.91-.07,2.45-2,3.8-4.53,3.74-2.71-.06-4.33-1.61-4.38-4.53C163.89,93,164,88,164,82.85Z"/><path class="cls-9" d="M192.65,96.21c.12.91,0,1.55.29,1.91a8,8,0,0,0,1.63,1.3c.42-.57,1.32-1.34,1.18-1.69a29.5,29.5,0,0,0-2.19-4c-1.21-2-3-4-3.5-6.18-.68-3,1.62-5.17,4.53-5.08s4.41,1.94,4.06,5.46h-2.34c-.13-.52-.12-1.14-.42-1.47s-1.24-1.09-1.55-.94c-.57.27-1.35,1.22-1.22,1.61A13.53,13.53,0,0,0,195,90.73c1,1.41,2.51,2.53,3.3,4a5.27,5.27,0,0,1-.63,6.37,4.46,4.46,0,0,1-5.38.77c-2.31-1-2.57-3.1-2.37-5.56Z"/><path class="cls-11" d="M183.48,102.15h-9V82.83h8.21c.07.78.13,1.53.22,2.59h-5.15v5.31l3.83.21v2.63l-3.84.31V99l5.71.89C183.46,100.61,183.47,101.38,183.48,102.15Z"/><path class="cls-12" d="M183.48,102.15c0-.77,0-1.54,0-2.3,2-.35,2.6-1.64,2.56-3.56-.08-4.37,0-8.73,0-13.35l2.76-.15c0,5.58.15,11-.07,16.34C188.57,101.39,186.6,102.3,183.48,102.15Z"/><path class="cls-13" d="M212.37,95.66h-8.65c-.6-1.57-.14-2.09,1.45-2.17C211.82,93.19,212.24,93.25,212.37,95.66Z"/><path class="cls-10" d="M203.88,89.15h7a2.9,2.9,0,0,1,1.78.66c-.55.49-1.07,1.36-1.65,1.41a39.65,39.65,0,0,1-6.26,0c-.55,0-1-.85-1.55-1.3Z"/><path class="cls-14" d="M491.88,90.1l-4,2.6c-1.56-.81-2.78-1.83-4.11-2-.92-.11-2.63.79-2.82,1.53a3.72,3.72,0,0,0,1.16,3.25c2.1,1.39,4.55,2.24,6.79,3.44,3.52,1.9,5.42,4.92,4.63,8.89a9.61,9.61,0,0,1-2.93,5.28c-5.23,4.24-14.31,2.08-17.67-4.12l4.43-2.59-.2.66c2.23.92,4.4,2.2,6.72,2.58,1.09.18,3-1.09,3.6-2.2.86-1.69-.69-2.85-2.2-3.58s-3.36-1.5-5-2.33c-4.28-2.16-6.19-5.42-5.63-9.45a7.8,7.8,0,0,1,6.61-6.58C486.09,84.59,489.53,86.06,491.88,90.1Z"/><path class="cls-15" d="M451.8,109.54l4.48-2.73c.44.52.72,1.18,1.2,1.38,1.35.57,2.89,1.48,4.14,1.22.82-.17,1.79-2.11,1.82-3.28.17-6.74.09-13.49.09-20.4h5.63c.09.17.3.39.3.61,0,6.93.12,13.87,0,20.8-.1,4.44-2.68,7.26-6.69,7.84C458,115.67,453.19,114,451.8,109.54Z"/><path class="cls-16" d="M375.39,69c0-.52.09-1,.1-1.57.1-5.67.1-5.67,5.91-5.67h20.38c-1,11-2.1,21.59-3,32.19-.63,7-1.16,14.1-1.64,21.15-.1,1.54-.5,2.26-2.13,2.68-6.34,1.61-12.62,3.44-19.1,5.23-.33-3.18-.63-6.07-.92-9l1-.15c3.64-.93,7.29-1.81,10.92-2.78,5-1.34,5-1.37,5.52-6.58,0-.35.12-.69.16-1q1.46-16.08,2.9-32.17a13.82,13.82,0,0,0-.13-2.08H376Z"/><path class="cls-17" d="M376,113.92l-1,.15c-4.55-1.26-9.08-2.58-13.65-3.77-1.45-.37-2.19-.9-2.25-2.59-.12-3.39-.54-6.78-.87-10.55,2.35,0,4.59-.11,6.81.08a2.18,2.18,0,0,1,1.33,1.7c-.61,4.15,1.73,5.49,5.25,5.94a31.88,31.88,0,0,1,3.31.8l1.11.45Z"/><path class="cls-18" d="M375.39,69l.6.25q0,3.81,0,7.6l-.56.22h-19c-.24-2.66-.47-5.12-.74-8.07Z"/><path class="cls-19" d="M376,106.13l-1.11-.45c.21-1.76.52-3.51.6-5.27.11-2.16,0-4.33,0-6.67L367,93l9-.09h9.58c-.28,3.6-.44,6.64-.81,9.66-.06.53-.92,1.17-1.55,1.38C380.83,104.74,378.4,105.41,376,106.13Z"/><path class="cls-16" d="M375.45,77.09l.56-.22h11c-.18,2.46-.42,4.43-.46,6.41,0,1.66-.66,2.34-2.38,2.28-2.72-.09-5.45,0-8.17,0l-.5-.55C375.46,82.4,375.46,79.75,375.45,77.09Z"/><path class="cls-20" d="M375.46,85.06l.5.55c0,2.42,0,4.85,0,7.27L367,93l-.92-7.91Z"/><path class="cls-21" d="M281.58,69.1c0-1.84,0-3.68,0-5.53,0-1.5.5-2.29,2.12-2.28,7.3,0,14.6.05,21.89,0,1.62,0,1.95.76,1.85,2.11-.4,5.48-.73,11-1.19,16.45-.42,4.94-1,9.87-1.44,14.81-.59,6.69-1,13.39-1.73,20.06a3.94,3.94,0,0,1-2.25,2.7c-5.58,1.76-11.25,3.26-16.89,4.82-1.57.44-2.35-.23-2.35-1.85,0-1.93,0-3.86,0-5.79l0-.22c3.47-.86,7-1.67,10.42-2.6,6-1.61,6-1.64,6.59-7.94,0-.44.13-.87.17-1.31.48-5.57.95-11.13,1.45-16.86H281.55l0-.21V77.59l.53-.33,18.53-.05.16.09.06-.19c.29-2.47.57-4.94.86-7.47H282.07a.47.47,0,0,0-.36-.22A1.27,1.27,0,0,0,281.58,69.1Z"/><path class="cls-22" d="M282.11,77.26l-.53.33h-11c.24,2.72.46,5.21.68,7.86h10.33l0,.21,0,7.72-.5.25H263.87c-.67-7.67-1.3-15-1.94-22.27l.06-1.67.52-.21,19.2-.06a.47.47,0,0,1,.36.22C282.08,72.18,282.1,74.72,282.11,77.26Z"/><path class="cls-23" d="M281.59,114.59c-4.87-1.37-9.77-2.68-14.61-4.17a2.91,2.91,0,0,1-1.71-2c-.44-3.47-.63-7-.92-10.66H272a17.31,17.31,0,0,1,.42,1.87c.52,4.25.5,4.27,4.54,5.33,1.52.39,3.05.7,4.58,1l.51.18q-.27,4.08-.53,8.16Z"/><path class="cls-24" d="M282.08,106.21l-.51-.18c0-3.21,0-6.42,0-9.64a16.59,16.59,0,0,0-.47-2.76l.5-.25h10c-.34,3.33-.52,6.13-1,8.87a3.12,3.12,0,0,1-1.73,2C286.68,105.1,284.35,105.59,282.08,106.21Z"/><path class="cls-25" d="M281.71,69.42l-19.2.06,14.62-.29,4.45-.09A1.27,1.27,0,0,1,281.71,69.42Z"/><path class="cls-25" d="M262,69.69l-.06,1.67Z"/><path class="cls-26" d="M376,92.88c0-2.42,0-4.85,0-7.27,2.72,0,5.45-.14,8.17,0,1.72.06,2.35-.62,2.38-2.28,0-2,.28-4,.46-6.41H376q0-3.8,0-7.6h19.36a13.82,13.82,0,0,1,.13,2.08q-1.43,16.08-2.9,32.17c0,.35-.12.69-.16,1-.52,5.21-.51,5.24-5.52,6.58-3.63,1-7.28,1.85-10.92,2.78v-7.79c2.42-.72,4.85-1.39,7.22-2.21.63-.21,1.49-.85,1.55-1.38.37-3,.53-6.06.81-9.66Z"/><path class="cls-27" d="M282.08,106.21c2.27-.62,4.6-1.11,6.8-1.92a3.12,3.12,0,0,0,1.73-2c.46-2.74.64-5.54,1-8.87h-10l0-7.72h18.63c-.5,5.73-1,11.29-1.45,16.86,0,.44-.13.87-.17,1.31-.61,6.3-.6,6.33-6.59,7.94-3.46.93-7,1.74-10.42,2.6Q281.81,110.29,282.08,106.21Z"/><path class="cls-28" d="M282.11,77.26c0-2.54,0-5.08,0-7.62h19.65c-.29,2.53-.57,5-.86,7.47a.2.2,0,0,0-.22.1Z"/><path class="cls-29" d="M281.59,85.45H271.26c-.22-2.65-.44-5.14-.68-7.86h11Q281.59,81.52,281.59,85.45Z"/><path class="cls-22" d="M300.64,77.21a.2.2,0,0,1,.22-.1l-.06.19Z"/></g></g></svg>